<svg xmlns="http://www.w3.org/2000/svg" viewBox="0 7.650000095367432 442.3500061035156 36.849998474121094" data-asc="0.878" width="442.3500061035156" height="36.849998474121094"><defs/><g fill="#000000"><g transform="translate(0, 0)"><path d="M30.25 43.90L30.25 31.50Q30.25 29.20 30.43 26.77Q30.60 24.35 30.80 22.70Q31 21.05 31.05 20.60L30.85 20.60L24.50 43.90L15.85 43.90L9.45 20.65L9.25 20.65Q9.30 21.10 9.53 22.72Q9.75 24.35 9.95 26.77Q10.15 29.20 10.15 31.50L10.15 43.90L0 43.90L0 9.50L15.60 9.50L20.80 29.35L21 29.35L26.15 9.50L41.20 9.50L41.20 43.90L30.25 43.90ZM66.35 43.90L65.70 39.90Q64.15 42.05 61.63 43.27Q59.10 44.50 56.30 44.50Q51.70 44.50 49.40 41.95Q47.10 39.40 47.10 34.60L47.10 17.50L57.05 17.50L57.05 33.40Q57.05 35.10 57.93 36.13Q58.80 37.15 60.40 37.15Q62.25 37.15 63.40 35.95Q64.55 34.75 64.55 33L64.55 17.50L74.50 17.50L74.50 43.90L66.35 43.90ZM80.90 43.90L80.90 7.65L90.85 7.65L90.85 43.90L80.90 43.90ZM114.80 17.50L114.80 24.25L109.20 24.25L109.20 34.30Q109.20 36.10 109.80 36.92Q110.40 37.75 112.00 37.75L114.80 37.75L114.80 43.60Q113.60 44 111.70 44.25Q109.80 44.50 108.40 44.50Q104.00 44.50 101.63 42.90Q99.25 41.30 99.25 37.45L99.25 24.25L95.55 24.25L95.55 17.50L99.65 17.50L101.80 9.50L109.20 9.50L109.20 17.50L114.80 17.50ZM119.75 14.40L119.75 7.65L129.70 7.65L129.70 14.40L119.75 14.40M119.75 43.90L119.75 17.50L129.70 17.50L129.70 43.90L119.75 43.90ZM135 34.10L135 26.20L147.75 26.20L147.75 34.10L135 34.10ZM186.05 20.05Q186.05 23.20 184.35 25.75Q182.65 28.30 179.40 29.50L187.05 43.90L174.65 43.90L168.55 31.35L164.45 31.35L164.45 43.90L153.40 43.90L153.40 9.50L174.45 9.50Q178.15 9.50 180.78 10.92Q183.40 12.35 184.73 14.77Q186.05 17.20 186.05 20.05M174.80 20.50Q174.80 19.15 173.90 18.25Q173.00 17.35 171.70 17.35L164.45 17.35L164.45 23.70L171.70 23.70Q173.00 23.70 173.90 22.77Q174.80 21.85 174.80 20.50ZM205.25 16.90Q212.20 16.90 216.18 20.42Q220.15 23.95 220.15 30.70Q220.15 37.45 216.18 40.98Q212.20 44.50 205.25 44.50Q198.30 44.50 194.35 41Q190.40 37.50 190.40 30.70Q190.40 23.90 194.35 20.40Q198.30 16.90 205.25 16.90M205.25 23.65Q200.35 23.65 200.35 29.30L200.35 32.15Q200.35 37.75 205.25 37.75Q210.20 37.75 210.20 32.15L210.20 29.30Q210.20 23.65 205.25 23.65ZM234.95 19.95Q237.80 16.90 242.35 16.90Q247.70 16.90 250.60 20.37Q253.50 23.85 253.50 30.65Q253.50 37.50 250.60 41Q247.70 44.50 242.35 44.50Q236.85 44.50 233.95 40.15L233.10 43.90L225.00 43.90L225.00 7.65L234.95 7.65L234.95 19.95M239.25 24.25Q237.05 24.25 235.95 25.82Q234.85 27.40 234.85 29.90L234.85 31.55Q234.85 34.05 235.95 35.60Q237.05 37.15 239.25 37.15Q243.55 37.15 243.55 32.05L243.55 29.40Q243.55 24.25 239.25 24.25ZM271.95 16.90Q278.90 16.90 282.88 20.42Q286.85 23.95 286.85 30.70Q286.85 37.45 282.88 40.98Q278.90 44.50 271.95 44.50Q265 44.50 261.05 41Q257.10 37.50 257.10 30.70Q257.10 23.90 261.05 20.40Q265 16.90 271.95 16.90M271.95 23.65Q267.05 23.65 267.05 29.30L267.05 32.15Q267.05 37.75 271.95 37.75Q276.90 37.75 276.90 32.15L276.90 29.30Q276.90 23.65 271.95 23.65ZM309.25 17.50L309.25 24.25L303.65 24.25L303.65 34.30Q303.65 36.10 304.25 36.92Q304.85 37.75 306.45 37.75L309.25 37.75L309.25 43.60Q308.05 44 306.15 44.25Q304.25 44.50 302.85 44.50Q298.45 44.50 296.08 42.90Q293.70 41.30 293.70 37.45L293.70 24.25L290.00 24.25L290.00 17.50L294.10 17.50L296.25 9.50L303.65 9.50L303.65 17.50L309.25 17.50ZM348.50 8.90Q353.45 8.90 357.40 10.40Q361.35 11.90 363.68 14.82Q366 17.75 366 21.95L355.45 21.95Q355.45 19.80 353.55 18.47Q351.65 17.15 348.95 17.15Q345.05 17.15 343.05 19.22Q341.05 21.30 341.05 25.10L341.05 28.30Q341.05 32.10 343.05 34.17Q345.05 36.25 348.95 36.25Q351.65 36.25 353.55 34.97Q355.45 33.70 355.45 31.70L347.65 31.70L347.65 24.70L366 24.70L366 43.90L360.30 43.90L359.20 40.50Q354.50 44.50 346.90 44.50Q338.35 44.50 334.05 40.02Q329.75 35.55 329.75 26.70Q329.75 17.95 334.63 13.42Q339.50 8.90 348.50 8.90ZM389.25 8.90Q396.90 8.90 401.35 12.72Q405.80 16.55 405.80 23.65L395.25 23.65Q395.25 20.65 393.67 18.90Q392.10 17.15 389.20 17.15Q385.85 17.15 384.27 19.25Q382.70 21.35 382.70 25.10L382.70 28.30Q382.70 32 384.27 34.13Q385.85 36.25 389.10 36.25Q392.30 36.25 393.95 34.60Q395.60 32.95 395.60 29.95L405.80 29.95Q405.80 37 401.47 40.75Q397.15 44.50 389.25 44.50Q380.45 44.50 375.92 40Q371.40 35.50 371.40 26.70Q371.40 17.90 375.92 13.40Q380.45 8.90 389.25 8.90ZM426.20 8.90Q432.80 8.90 437.05 11.57Q441.30 14.25 441.40 19.50L441.40 20.10L431.05 20.10L431.05 19.90Q431.05 18.40 429.95 17.40Q428.85 16.40 426.60 16.40Q424.40 16.40 423.22 17.05Q422.05 17.70 422.05 18.65Q422.05 20.00 423.65 20.65Q425.25 21.30 428.80 22.00Q432.95 22.85 435.62 23.77Q438.30 24.70 440.30 26.80Q442.30 28.90 442.35 32.50Q442.35 38.60 438.22 41.55Q434.10 44.50 427.20 44.50Q419.15 44.50 414.67 41.80Q410.20 39.10 410.20 32.25L420.65 32.25Q420.65 34.85 422.00 35.72Q423.35 36.60 426.20 36.60Q428.30 36.60 429.67 36.15Q431.05 35.70 431.05 34.30Q431.05 33.05 429.52 32.42Q428.00 31.80 424.55 31.10Q420.35 30.20 417.60 29.22Q414.85 28.25 412.80 26.00Q410.75 23.75 410.75 19.90Q410.75 14.25 415.12 11.57Q419.50 8.90 426.20 8.90Z"/></g></g></svg>