<?xml version="1.0" standalone="no"?>
<!DOCTYPE svg PUBLIC "-//W3C//DTD SVG 20010904//EN"
 "http://www.w3.org/TR/2001/REC-SVG-20010904/DTD/svg10.dtd">
<svg version="1.0" xmlns="http://www.w3.org/2000/svg"
 width="1024.000000pt" height="340.000000pt" viewBox="0 0 1024.000000 340.000000"
 preserveAspectRatio="xMidYMid meet">

<g transform="translate(0.000000,340.000000) scale(0.100000,-0.100000)"
fill="#000000" stroke="none">
<path d="M1783 2653 c-138 -235 -394 -671 -569 -968 -174 -297 -327 -562 -340
-590 -57 -121 0 -270 122 -321 22 -9 97 -13 254 -15 l223 -1 17 28 c10 16 150
245 313 509 162 264 365 595 452 735 87 140 167 270 178 288 10 17 22 32 25
32 4 0 66 -104 137 -230 72 -127 133 -230 136 -230 4 0 68 105 143 234 130
224 136 236 130 275 -16 100 -112 198 -217 221 -141 32 -296 -68 -323 -207 -3
-18 -9 -33 -13 -33 -3 1 -88 141 -189 313 -100 172 -192 329 -205 350 l-23 38
-251 -428z"/>
<path d="M5788 2470 c-219 -26 -351 -136 -402 -335 -26 -105 -36 -223 -36
-450 1 -463 58 -638 239 -729 136 -69 366 -81 562 -28 78 21 79 27 46 157 -27
104 -14 98 -172 75 -162 -23 -281 4 -324 73 -42 68 -55 170 -55 442 -1 270 8
352 49 442 36 79 77 97 225 98 63 0 143 -4 176 -8 l61 -8 27 106 c15 59 24
110 21 114 -8 15 -118 40 -215 51 -105 11 -106 11 -202 0z"/>
<path d="M6802 2470 c-250 -35 -372 -175 -372 -426 0 -150 51 -257 167 -349
32 -25 127 -85 211 -133 224 -127 272 -174 272 -267 0 -58 -21 -100 -63 -122
-48 -27 -286 -24 -422 4 -55 12 -103 18 -107 15 -7 -8 -57 -225 -53 -230 7 -7
117 -33 205 -48 128 -22 354 -22 443 0 190 45 286 160 304 363 7 87 -9 178
-45 252 -50 101 -144 175 -406 317 -130 71 -190 124 -206 185 -14 52 -1 109
34 144 48 48 195 55 414 20 48 -8 87 -13 88 -12 5 4 54 206 54 220 0 40 -368
88 -518 67z"/>
<path d="M4231 1695 c-105 -421 -191 -767 -191 -770 0 -3 60 -5 134 -5 l134 0
39 163 39 162 219 0 219 0 39 -163 39 -162 139 0 c77 0 139 4 139 9 0 5 -83
339 -184 743 -101 403 -187 745 -190 761 l-6 27 -189 0 -189 0 -191 -765z
m529 -172 c0 -10 -38 -13 -156 -13 -143 0 -155 1 -150 18 9 29 124 534 132
577 3 22 9 45 13 50 5 9 160 -600 161 -632z"/>
<path d="M7647 2454 c-4 -4 -7 -351 -7 -771 l0 -763 407 2 c401 3 408 3 407
23 -1 11 -2 68 -2 128 l-2 107 -260 0 -260 0 -2 638 -3 637 -136 3 c-74 1
-138 -1 -142 -4z"/>
<path d="M2634 1723 c-54 -87 -210 -338 -346 -558 l-249 -400 492 -3 492 -2
52 24 c112 51 166 192 115 303 -17 39 -417 736 -445 776 -12 16 -24 1 -111
-140z"/>
</g>
</svg>
